solid OpenSCAD_Model
  facet normal -1 -0 -0
    outer loop
      vertex -15 -3.3 0
      vertex -15 -3.3 3
      vertex -15 6.6 0
    endloop
  endfacet
  facet normal -1 0 0
    outer loop
      vertex -15 6.6 0
      vertex -15 -3.3 3
      vertex -15 6.6 3
    endloop
  endfacet
  facet normal 0 -1 0
    outer loop
      vertex -15 -3.3 3
      vertex -15 -3.3 0
      vertex -4.40597 -3.3 0
    endloop
  endfacet
  facet normal 0 -1 0
    outer loop
      vertex -4.40597 -3.3 3
      vertex -15 -3.3 3
      vertex -4.40597 -3.3 0
    endloop
  endfacet
  facet normal -0 -0 -1
    outer loop
      vertex -15 -3.3 0
      vertex -15 6.6 0
      vertex -4.40597 -3.3 0
    endloop
  endfacet
  facet normal 0 0 -1
    outer loop
      vertex -10 3.3 0
      vertex -15 6.6 0
      vertex -10 6.6 0
    endloop
  endfacet
  facet normal 0 0 -1
    outer loop
      vertex -4.40597 -3.3 0
      vertex -15 6.6 0
      vertex -10 3.3 0
    endloop
  endfacet
  facet normal 0 0 -1
    outer loop
      vertex -2.775 -4.80644 0
      vertex 0.963747 -5.46568 0
      vertex -0.963747 -5.46568 0
    endloop
  endfacet
  facet normal 0 -0 -1
    outer loop
      vertex -4.40597 -3.3 0
      vertex -4.40597 3.3 0
      vertex -4.25155 3.56747 0
    endloop
  endfacet
  facet normal 0 0 -1
    outer loop
      vertex -4.40597 -3.3 0
      vertex -4.25155 3.56747 0
      vertex -2.775 4.80644 0
    endloop
  endfacet
  facet normal 0 0 -1
    outer loop
      vertex -4.40597 -3.3 0
      vertex -2.775 4.80644 0
      vertex -0.963747 5.46568 0
    endloop
  endfacet
  facet normal 0 0 -1
    outer loop
      vertex -1.95961 0.943697 0
      vertex -0.963747 5.46568 0
      vertex 0.963747 5.46568 0
    endloop
  endfacet
  facet normal 0 0 -1
    outer loop
      vertex -0.483983 2.12047 0
      vertex 0.963747 5.46568 0
      vertex 2.775 4.80644 0
    endloop
  endfacet
  facet normal 0 0 -1
    outer loop
      vertex 1.35609 1.70048 0
      vertex 2.775 4.80644 0
      vertex 4.25155 3.56747 0
    endloop
  endfacet
  facet normal 0 0 -1
    outer loop
      vertex 2.175 0 0
      vertex 4.40597 3.3 0
      vertex 10 3.3 0
    endloop
  endfacet
  facet normal 0 -0 -1
    outer loop
      vertex 10 3.3 0
      vertex 10 6.6 0
      vertex 15 6.6 0
    endloop
  endfacet
  facet normal -0 0 -1
    outer loop
      vertex 10 3.3 0
      vertex 15 6.6 0
      vertex 15 -3.3 0
    endloop
  endfacet
  facet normal 0 0 -1
    outer loop
      vertex -4.40597 3.3 0
      vertex -4.40597 -3.3 0
      vertex -10 3.3 0
    endloop
  endfacet
  facet normal 0 0 -1
    outer loop
      vertex 10 3.3 0
      vertex 15 -3.3 0
      vertex 4.40597 -3.3 0
    endloop
  endfacet
  facet normal 0 0 -1
    outer loop
      vertex -0.483983 -2.12047 0
      vertex 4.40597 -3.3 0
      vertex -4.40597 -3.3 0
    endloop
  endfacet
  facet normal 0 0 -1
    outer loop
      vertex 4.40597 -3.3 0
      vertex 4.25155 -3.56747 0
      vertex -4.40597 -3.3 0
    endloop
  endfacet
  facet normal 0 0 -1
    outer loop
      vertex -1.95961 0.943697 0
      vertex 0.963747 5.46568 0
      vertex -0.483983 2.12047 0
    endloop
  endfacet
  facet normal 0 0 -1
    outer loop
      vertex -4.25155 -3.56747 0
      vertex 2.775 -4.80644 0
      vertex -2.775 -4.80644 0
    endloop
  endfacet
  facet normal 0 0 -1
    outer loop
      vertex 2.775 -4.80644 0
      vertex 0.963747 -5.46568 0
      vertex -2.775 -4.80644 0
    endloop
  endfacet
  facet normal 0 0 -1
    outer loop
      vertex 4.25155 -3.56747 0
      vertex 2.775 -4.80644 0
      vertex -4.25155 -3.56747 0
    endloop
  endfacet
  facet normal 0 0 -1
    outer loop
      vertex -4.40597 -3.3 0
      vertex -0.963747 5.46568 0
      vertex -1.95961 0.943697 0
    endloop
  endfacet
  facet normal 0 0 -1
    outer loop
      vertex -1.95961 -0.943697 0
      vertex -4.40597 -3.3 0
      vertex -1.95961 0.943697 0
    endloop
  endfacet
  facet normal 0 0 -1
    outer loop
      vertex -0.483983 -2.12047 0
      vertex -4.40597 -3.3 0
      vertex -1.95961 -0.943697 0
    endloop
  endfacet
  facet normal 0 0 -1
    outer loop
      vertex 1.35609 -1.70048 0
      vertex 4.40597 -3.3 0
      vertex -0.483983 -2.12047 0
    endloop
  endfacet
  facet normal -0 0 -1
    outer loop
      vertex 2.175 0 0
      vertex 10 3.3 0
      vertex 1.35609 -1.70048 0
    endloop
  endfacet
  facet normal 0 0 -1
    outer loop
      vertex 10 3.3 0
      vertex 4.40597 -3.3 0
      vertex 1.35609 -1.70048 0
    endloop
  endfacet
  facet normal -0 0 -1
    outer loop
      vertex 1.35609 1.70048 0
      vertex 4.40597 3.3 0
      vertex 2.175 0 0
    endloop
  endfacet
  facet normal -0 0 -1
    outer loop
      vertex -0.483983 2.12047 0
      vertex 2.775 4.80644 0
      vertex 1.35609 1.70048 0
    endloop
  endfacet
  facet normal 0 0 -1
    outer loop
      vertex -4.40597 -3.3 0
      vertex 4.25155 -3.56747 0
      vertex -4.25155 -3.56747 0
    endloop
  endfacet
  facet normal 0 0 -1
    outer loop
      vertex 1.35609 1.70048 0
      vertex 4.25155 3.56747 0
      vertex 4.40597 3.3 0
    endloop
  endfacet
  facet normal 0 1 0
    outer loop
      vertex -15 6.6 0
      vertex -15 6.6 3
      vertex -10 6.6 0
    endloop
  endfacet
  facet normal 0 1 0
    outer loop
      vertex -10 6.6 0
      vertex -15 6.6 3
      vertex -10 6.6 3
    endloop
  endfacet
  facet normal 0 -0 1
    outer loop
      vertex -15 6.6 3
      vertex -15 -3.3 3
      vertex -4.40597 -3.3 3
    endloop
  endfacet
  facet normal -0 -0 1
    outer loop
      vertex -5.55 0 3
      vertex -15 6.6 3
      vertex -5.21529 -1.89821 3
    endloop
  endfacet
  facet normal -0 -0 1
    outer loop
      vertex -5.21529 -1.89821 3
      vertex -15 6.6 3
      vertex -4.40597 -3.3 3
    endloop
  endfacet
  facet normal -0 -0 1
    outer loop
      vertex -10 3.3 3
      vertex -15 6.6 3
      vertex -5.55 0 3
    endloop
  endfacet
  facet normal 0 0 1
    outer loop
      vertex -10 3.3 3
      vertex -10 6.6 3
      vertex -15 6.6 3
    endloop
  endfacet
  facet normal -0 0 1
    outer loop
      vertex -5.21529 1.89821 3
      vertex -10 3.3 3
      vertex -5.55 0 3
    endloop
  endfacet
  facet normal 0 0 1
    outer loop
      vertex -4.40597 3.3 3
      vertex -10 3.3 3
      vertex -5.21529 1.89821 3
    endloop
  endfacet
  facet normal -0.866025 -0.5 -0
    outer loop
      vertex -5.21529 -1.89821 3
      vertex -4.40597 -3.3 3
      vertex -5.21529 -1.89821 4.5
    endloop
  endfacet
  facet normal -0.866025 -0.5 0
    outer loop
      vertex -4.25155 -3.56747 0
      vertex -4.40597 -3.3 3
      vertex -4.40597 -3.3 0
    endloop
  endfacet
  facet normal -0.866025 -0.5 0
    outer loop
      vertex -4.25155 -3.56747 4.5
      vertex -4.40597 -3.3 3
      vertex -4.25155 -3.56747 0
    endloop
  endfacet
  facet normal -0.866025 -0.5 -5.34987e-017
    outer loop
      vertex -5.21529 -1.89821 4.5
      vertex -4.40597 -3.3 3
      vertex -4.25155 -3.56747 4.5
    endloop
  endfacet
  facet normal -0.642788 -0.766044 0
    outer loop
      vertex -4.25155 -3.56747 4.5
      vertex -4.25155 -3.56747 0
      vertex -2.775 -4.80644 0
    endloop
  endfacet
  facet normal -0.642788 -0.766044 0
    outer loop
      vertex -2.775 -4.80644 4.5
      vertex -4.25155 -3.56747 4.5
      vertex -2.775 -4.80644 0
    endloop
  endfacet
  facet normal -0.34202 -0.939693 0
    outer loop
      vertex -2.775 -4.80644 4.5
      vertex -2.775 -4.80644 0
      vertex -0.963747 -5.46568 0
    endloop
  endfacet
  facet normal -0.34202 -0.939693 0
    outer loop
      vertex -0.963747 -5.46568 4.5
      vertex -2.775 -4.80644 4.5
      vertex -0.963747 -5.46568 0
    endloop
  endfacet
  facet normal 0 -1 0
    outer loop
      vertex -0.963747 -5.46568 4.5
      vertex -0.963747 -5.46568 0
      vertex 0.963747 -5.46568 0
    endloop
  endfacet
  facet normal 0 -1 0
    outer loop
      vertex 0.963747 -5.46568 4.5
      vertex -0.963747 -5.46568 4.5
      vertex 0.963747 -5.46568 0
    endloop
  endfacet
  facet normal 0.34202 -0.939693 0
    outer loop
      vertex 0.963747 -5.46568 4.5
      vertex 0.963747 -5.46568 0
      vertex 2.775 -4.80644 0
    endloop
  endfacet
  facet normal 0.34202 -0.939693 0
    outer loop
      vertex 2.775 -4.80644 4.5
      vertex 0.963747 -5.46568 4.5
      vertex 2.775 -4.80644 0
    endloop
  endfacet
  facet normal 0.642788 -0.766044 0
    outer loop
      vertex 2.775 -4.80644 4.5
      vertex 2.775 -4.80644 0
      vertex 4.25155 -3.56747 0
    endloop
  endfacet
  facet normal 0.642788 -0.766044 0
    outer loop
      vertex 4.25155 -3.56747 4.5
      vertex 2.775 -4.80644 4.5
      vertex 4.25155 -3.56747 0
    endloop
  endfacet
  facet normal 0.866025 -0.5 0
    outer loop
      vertex 4.25155 -3.56747 4.5
      vertex 4.25155 -3.56747 0
      vertex 4.40597 -3.3 0
    endloop
  endfacet
  facet normal 0.866025 -0.5 -6.37066e-017
    outer loop
      vertex 5.21529 -1.89821 3
      vertex 4.25155 -3.56747 4.5
      vertex 4.40597 -3.3 3
    endloop
  endfacet
  facet normal 0.866025 -0.5 0
    outer loop
      vertex 4.40597 -3.3 3
      vertex 4.25155 -3.56747 4.5
      vertex 4.40597 -3.3 0
    endloop
  endfacet
  facet normal 0.866025 -0.5 0
    outer loop
      vertex 5.21529 -1.89821 4.5
      vertex 4.25155 -3.56747 4.5
      vertex 5.21529 -1.89821 3
    endloop
  endfacet
  facet normal 0 -1 0
    outer loop
      vertex 4.40597 -3.3 3
      vertex 4.40597 -3.3 0
      vertex 15 -3.3 0
    endloop
  endfacet
  facet normal 0 -1 0
    outer loop
      vertex 15 -3.3 3
      vertex 4.40597 -3.3 3
      vertex 15 -3.3 0
    endloop
  endfacet
  facet normal 1 0 -0
    outer loop
      vertex 15 -3.3 3
      vertex 15 -3.3 0
      vertex 15 6.6 0
    endloop
  endfacet
  facet normal 1 0 0
    outer loop
      vertex 15 6.6 3
      vertex 15 -3.3 3
      vertex 15 6.6 0
    endloop
  endfacet
  facet normal 0 1 0
    outer loop
      vertex 10 6.6 0
      vertex 10 6.6 3
      vertex 15 6.6 0
    endloop
  endfacet
  facet normal 0 1 0
    outer loop
      vertex 15 6.6 0
      vertex 10 6.6 3
      vertex 15 6.6 3
    endloop
  endfacet
  facet normal -1 0 0
    outer loop
      vertex 10 6.6 3
      vertex 10 6.6 0
      vertex 10 3.3 3
    endloop
  endfacet
  facet normal -1 0 0
    outer loop
      vertex 10 3.3 3
      vertex 10 6.6 0
      vertex 10 3.3 0
    endloop
  endfacet
  facet normal 0 1 0
    outer loop
      vertex 4.40597 3.3 0
      vertex 4.40597 3.3 3
      vertex 10 3.3 0
    endloop
  endfacet
  facet normal 0 1 0
    outer loop
      vertex 10 3.3 0
      vertex 4.40597 3.3 3
      vertex 10 3.3 3
    endloop
  endfacet
  facet normal 0.866025 0.5 0
    outer loop
      vertex 4.40597 3.3 0
      vertex 4.25155 3.56747 0
      vertex 4.25155 3.56747 4.5
    endloop
  endfacet
  facet normal 0.866025 0.5 -0
    outer loop
      vertex 4.40597 3.3 3
      vertex 4.40597 3.3 0
      vertex 4.25155 3.56747 4.5
    endloop
  endfacet
  facet normal 0.866025 0.5 -5.34987e-017
    outer loop
      vertex 5.21529 1.89821 4.5
      vertex 4.40597 3.3 3
      vertex 4.25155 3.56747 4.5
    endloop
  endfacet
  facet normal 0.866025 0.5 0
    outer loop
      vertex 5.21529 1.89821 3
      vertex 4.40597 3.3 3
      vertex 5.21529 1.89821 4.5
    endloop
  endfacet
  facet normal 0.642788 0.766044 0
    outer loop
      vertex 2.775 4.80644 0
      vertex 2.775 4.80644 4.5
      vertex 4.25155 3.56747 0
    endloop
  endfacet
  facet normal 0.642788 0.766044 0
    outer loop
      vertex 4.25155 3.56747 0
      vertex 2.775 4.80644 4.5
      vertex 4.25155 3.56747 4.5
    endloop
  endfacet
  facet normal 0.34202 0.939693 0
    outer loop
      vertex 0.963747 5.46568 0
      vertex 0.963747 5.46568 4.5
      vertex 2.775 4.80644 0
    endloop
  endfacet
  facet normal 0.34202 0.939693 0
    outer loop
      vertex 2.775 4.80644 0
      vertex 0.963747 5.46568 4.5
      vertex 2.775 4.80644 4.5
    endloop
  endfacet
  facet normal 0 1 0
    outer loop
      vertex -0.963747 5.46568 0
      vertex -0.963747 5.46568 4.5
      vertex 0.963747 5.46568 0
    endloop
  endfacet
  facet normal 0 1 0
    outer loop
      vertex 0.963747 5.46568 0
      vertex -0.963747 5.46568 4.5
      vertex 0.963747 5.46568 4.5
    endloop
  endfacet
  facet normal -0.34202 0.939693 0
    outer loop
      vertex -2.775 4.80644 0
      vertex -2.775 4.80644 4.5
      vertex -0.963747 5.46568 0
    endloop
  endfacet
  facet normal -0.34202 0.939693 0
    outer loop
      vertex -0.963747 5.46568 0
      vertex -2.775 4.80644 4.5
      vertex -0.963747 5.46568 4.5
    endloop
  endfacet
  facet normal -0.642788 0.766044 0
    outer loop
      vertex -4.25155 3.56747 0
      vertex -4.25155 3.56747 4.5
      vertex -2.775 4.80644 0
    endloop
  endfacet
  facet normal -0.642788 0.766044 0
    outer loop
      vertex -2.775 4.80644 0
      vertex -4.25155 3.56747 4.5
      vertex -2.775 4.80644 4.5
    endloop
  endfacet
  facet normal -0.866025 0.5 0
    outer loop
      vertex -5.21529 1.89821 3
      vertex -5.21529 1.89821 4.5
      vertex -4.40597 3.3 3
    endloop
  endfacet
  facet normal -0.866025 0.5 -2.15997e-017
    outer loop
      vertex -4.40597 3.3 3
      vertex -5.21529 1.89821 4.5
      vertex -4.25155 3.56747 4.5
    endloop
  endfacet
  facet normal -0.866025 0.5 0
    outer loop
      vertex -4.40597 3.3 3
      vertex -4.25155 3.56747 4.5
      vertex -4.25155 3.56747 0
    endloop
  endfacet
  facet normal -0.866025 0.5 0
    outer loop
      vertex -4.40597 3.3 3
      vertex -4.25155 3.56747 0
      vertex -4.40597 3.3 0
    endloop
  endfacet
  facet normal 0 1 0
    outer loop
      vertex -10 3.3 0
      vertex -10 3.3 3
      vertex -4.40597 3.3 0
    endloop
  endfacet
  facet normal 0 1 0
    outer loop
      vertex -4.40597 3.3 0
      vertex -10 3.3 3
      vertex -4.40597 3.3 3
    endloop
  endfacet
  facet normal 1 0 0
    outer loop
      vertex -10 6.6 0
      vertex -10 6.6 3
      vertex -10 3.3 3
    endloop
  endfacet
  facet normal 1 0 0
    outer loop
      vertex -10 3.3 0
      vertex -10 6.6 0
      vertex -10 3.3 3
    endloop
  endfacet
  facet normal 0.62349 -0.781831 0
    outer loop
      vertex -0.483983 2.12047 0
      vertex -0.483983 2.12047 1.125
      vertex -1.95961 0.943697 1.125
    endloop
  endfacet
  facet normal 0.62349 -0.781831 0
    outer loop
      vertex -1.95961 0.943697 0
      vertex -0.483983 2.12047 0
      vertex -1.95961 0.943697 1.125
    endloop
  endfacet
  facet normal 1 0 0
    outer loop
      vertex -1.95961 0.943697 0
      vertex -1.95961 0.943697 1.125
      vertex -1.95961 -0.943697 1.125
    endloop
  endfacet
  facet normal 1 0 0
    outer loop
      vertex -1.95961 -0.943697 0
      vertex -1.95961 0.943697 0
      vertex -1.95961 -0.943697 1.125
    endloop
  endfacet
  facet normal -0.222521 -0.974928 -0
    outer loop
      vertex 1.35609 1.70048 0
      vertex 1.35609 1.70048 1.125
      vertex -0.483983 2.12047 1.125
    endloop
  endfacet
  facet normal -0.222521 -0.974928 -0
    outer loop
      vertex -0.483983 2.12047 0
      vertex 1.35609 1.70048 0
      vertex -0.483983 2.12047 1.125
    endloop
  endfacet
  facet normal -0.900969 -0.433884 0
    outer loop
      vertex 2.175 0 1.125
      vertex 1.35609 1.70048 1.125
      vertex 2.175 0 0
    endloop
  endfacet
  facet normal -0.900969 -0.433884 0
    outer loop
      vertex 2.175 0 0
      vertex 1.35609 1.70048 1.125
      vertex 1.35609 1.70048 0
    endloop
  endfacet
  facet normal -0.900969 0.433884 0
    outer loop
      vertex 2.175 0 1.125
      vertex 2.175 0 0
      vertex 1.35609 -1.70048 1.125
    endloop
  endfacet
  facet normal -0.900969 0.433884 0
    outer loop
      vertex 1.35609 -1.70048 1.125
      vertex 2.175 0 0
      vertex 1.35609 -1.70048 0
    endloop
  endfacet
  facet normal -0.222521 0.974928 0
    outer loop
      vertex 1.35609 -1.70048 1.125
      vertex 1.35609 -1.70048 0
      vertex -0.483983 -2.12047 1.125
    endloop
  endfacet
  facet normal -0.222521 0.974928 0
    outer loop
      vertex -0.483983 -2.12047 1.125
      vertex 1.35609 -1.70048 0
      vertex -0.483983 -2.12047 0
    endloop
  endfacet
  facet normal 0.62349 0.781831 -0
    outer loop
      vertex -0.483983 -2.12047 1.125
      vertex -0.483983 -2.12047 0
      vertex -1.95961 -0.943697 1.125
    endloop
  endfacet
  facet normal 0.62349 0.781831 -0
    outer loop
      vertex -1.95961 -0.943697 1.125
      vertex -0.483983 -2.12047 0
      vertex -1.95961 -0.943697 0
    endloop
  endfacet
  facet normal -0.984808 0.173648 0
    outer loop
      vertex -5.55 0 3
      vertex -5.55 0 4.5
      vertex -5.21529 1.89821 3
    endloop
  endfacet
  facet normal -0.984808 0.173648 0
    outer loop
      vertex -5.21529 1.89821 3
      vertex -5.55 0 4.5
      vertex -5.21529 1.89821 4.5
    endloop
  endfacet
  facet normal -0.984808 -0.173648 -0
    outer loop
      vertex -5.55 0 3
      vertex -5.21529 -1.89821 3
      vertex -5.55 0 4.5
    endloop
  endfacet
  facet normal -0.984808 -0.173648 0
    outer loop
      vertex -5.55 0 4.5
      vertex -5.21529 -1.89821 3
      vertex -5.21529 -1.89821 4.5
    endloop
  endfacet
  facet normal 0 0 1
    outer loop
      vertex -5.21529 1.89821 4.5
      vertex -5.55 0 4.5
      vertex -5.21529 -1.89821 4.5
    endloop
  endfacet
  facet normal 0 0 1
    outer loop
      vertex -2.775 -4.80644 4.5
      vertex -5.21529 1.89821 4.5
      vertex -4.25155 -3.56747 4.5
    endloop
  endfacet
  facet normal 0 0 1
    outer loop
      vertex -4.25155 -3.56747 4.5
      vertex -5.21529 1.89821 4.5
      vertex -5.21529 -1.89821 4.5
    endloop
  endfacet
  facet normal 0 0 1
    outer loop
      vertex -0.963747 -5.46568 4.5
      vertex -5.21529 1.89821 4.5
      vertex -2.775 -4.80644 4.5
    endloop
  endfacet
  facet normal -0 -0 1
    outer loop
      vertex -3.16633 -0.929717 4.5
      vertex -5.21529 1.89821 4.5
      vertex -0.963747 -5.46568 4.5
    endloop
  endfacet
  facet normal 0 -0 1
    outer loop
      vertex 3.3 0 4.5
      vertex 2.77614 -1.78411 4.5
      vertex 5.21529 -1.89821 4.5
    endloop
  endfacet
  facet normal 0 -0 1
    outer loop
      vertex 0.963747 5.46568 4.5
      vertex -5.21529 1.89821 4.5
      vertex 2.775 4.80644 4.5
    endloop
  endfacet
  facet normal 0 -0 1
    outer loop
      vertex -0.963747 5.46568 4.5
      vertex -5.21529 1.89821 4.5
      vertex 0.963747 5.46568 4.5
    endloop
  endfacet
  facet normal 0 -0 1
    outer loop
      vertex -2.775 4.80644 4.5
      vertex -5.21529 1.89821 4.5
      vertex -0.963747 5.46568 4.5
    endloop
  endfacet
  facet normal 0 -0 1
    outer loop
      vertex -4.25155 3.56747 4.5
      vertex -5.21529 1.89821 4.5
      vertex -2.775 4.80644 4.5
    endloop
  endfacet
  facet normal -0 -0 1
    outer loop
      vertex -2.16104 -2.49397 4.5
      vertex -3.16633 -0.929717 4.5
      vertex -0.963747 -5.46568 4.5
    endloop
  endfacet
  facet normal 0 -0 1
    outer loop
      vertex 1.37087 -3.00179 4.5
      vertex -0.469639 -3.26641 4.5
      vertex 2.775 -4.80644 4.5
    endloop
  endfacet
  facet normal 0 0 1
    outer loop
      vertex 1.37087 3.00179 4.5
      vertex 2.77614 1.78411 4.5
      vertex 5.21529 1.89821 4.5
    endloop
  endfacet
  facet normal 0 0 1
    outer loop
      vertex 2.775 4.80644 4.5
      vertex -5.21529 1.89821 4.5
      vertex -2.16104 2.49397 4.5
    endloop
  endfacet
  facet normal 0 -0 1
    outer loop
      vertex 2.775 4.80644 4.5
      vertex -0.469639 3.26641 4.5
      vertex 4.25155 3.56747 4.5
    endloop
  endfacet
  facet normal 0 0 1
    outer loop
      vertex 2.775 4.80644 4.5
      vertex -2.16104 2.49397 4.5
      vertex -0.469639 3.26641 4.5
    endloop
  endfacet
  facet normal 0 -0 1
    outer loop
      vertex 4.25155 3.56747 4.5
      vertex 1.37087 3.00179 4.5
      vertex 5.21529 1.89821 4.5
    endloop
  endfacet
  facet normal 0 0 1
    outer loop
      vertex -0.469639 3.26641 4.5
      vertex 1.37087 3.00179 4.5
      vertex 4.25155 3.56747 4.5
    endloop
  endfacet
  facet normal 0 -0 1
    outer loop
      vertex 5.21529 1.89821 4.5
      vertex 2.77614 1.78411 4.5
      vertex 5.55 0 4.5
    endloop
  endfacet
  facet normal 0 0 1
    outer loop
      vertex 5.55 0 4.5
      vertex 3.3 0 4.5
      vertex 5.21529 -1.89821 4.5
    endloop
  endfacet
  facet normal -0 0 1
    outer loop
      vertex 5.21529 -1.89821 4.5
      vertex 2.77614 -1.78411 4.5
      vertex 4.25155 -3.56747 4.5
    endloop
  endfacet
  facet normal -0 0 1
    outer loop
      vertex 4.25155 -3.56747 4.5
      vertex 1.37087 -3.00179 4.5
      vertex 2.775 -4.80644 4.5
    endloop
  endfacet
  facet normal 0 0 1
    outer loop
      vertex 2.77614 1.78411 4.5
      vertex 3.3 0 4.5
      vertex 5.55 0 4.5
    endloop
  endfacet
  facet normal -0 0 1
    outer loop
      vertex 2.775 -4.80644 4.5
      vertex -0.469639 -3.26641 4.5
      vertex 0.963747 -5.46568 4.5
    endloop
  endfacet
  facet normal -0 0 1
    outer loop
      vertex 0.963747 -5.46568 4.5
      vertex -2.16104 -2.49397 4.5
      vertex -0.963747 -5.46568 4.5
    endloop
  endfacet
  facet normal -0 -0 1
    outer loop
      vertex -0.469639 -3.26641 4.5
      vertex -2.16104 -2.49397 4.5
      vertex 0.963747 -5.46568 4.5
    endloop
  endfacet
  facet normal 0 0 1
    outer loop
      vertex -3.16633 -0.929717 4.5
      vertex -3.16633 0.929717 4.5
      vertex -5.21529 1.89821 4.5
    endloop
  endfacet
  facet normal 0 -0 1
    outer loop
      vertex 2.77614 -1.78411 4.5
      vertex 1.37087 -3.00179 4.5
      vertex 4.25155 -3.56747 4.5
    endloop
  endfacet
  facet normal 0 0 1
    outer loop
      vertex -3.16633 0.929717 4.5
      vertex -2.16104 2.49397 4.5
      vertex -5.21529 1.89821 4.5
    endloop
  endfacet
  facet normal 0.984808 -0.173648 0
    outer loop
      vertex 5.21529 -1.89821 4.5
      vertex 5.21529 -1.89821 3
      vertex 5.55 0 3
    endloop
  endfacet
  facet normal 0.984808 -0.173648 0
    outer loop
      vertex 5.55 0 4.5
      vertex 5.21529 -1.89821 4.5
      vertex 5.55 0 3
    endloop
  endfacet
  facet normal 0 -0 1
    outer loop
      vertex 5.21529 -1.89821 3
      vertex 4.40597 -3.3 3
      vertex 15 -3.3 3
    endloop
  endfacet
  facet normal 0 -0 1
    outer loop
      vertex 10 3.3 3
      vertex 5.21529 -1.89821 3
      vertex 15 6.6 3
    endloop
  endfacet
  facet normal 0 0 1
    outer loop
      vertex 15 6.6 3
      vertex 5.21529 -1.89821 3
      vertex 15 -3.3 3
    endloop
  endfacet
  facet normal 0 0 1
    outer loop
      vertex 10 3.3 3
      vertex 5.55 0 3
      vertex 5.21529 -1.89821 3
    endloop
  endfacet
  facet normal 0 -0 1
    outer loop
      vertex 10 6.6 3
      vertex 10 3.3 3
      vertex 15 6.6 3
    endloop
  endfacet
  facet normal 0 0 1
    outer loop
      vertex 10 3.3 3
      vertex 5.21529 1.89821 3
      vertex 5.55 0 3
    endloop
  endfacet
  facet normal 0 0 1
    outer loop
      vertex 10 3.3 3
      vertex 4.40597 3.3 3
      vertex 5.21529 1.89821 3
    endloop
  endfacet
  facet normal 0.984808 0.173648 0
    outer loop
      vertex 5.55 0 3
      vertex 5.21529 1.89821 3
      vertex 5.21529 1.89821 4.5
    endloop
  endfacet
  facet normal 0.984808 0.173648 -0
    outer loop
      vertex 5.55 0 4.5
      vertex 5.55 0 3
      vertex 5.21529 1.89821 4.5
    endloop
  endfacet
  facet normal 0 0 1
    outer loop
      vertex -2.16104 -2.49397 1.125
      vertex -0.469639 -3.26641 1.125
      vertex 1.37087 -3.00179 1.125
    endloop
  endfacet
  facet normal 0 -0 1
    outer loop
      vertex -0.483983 -2.12047 1.125
      vertex -2.16104 -2.49397 1.125
      vertex 2.77614 -1.78411 1.125
    endloop
  endfacet
  facet normal 0 0 1
    outer loop
      vertex 2.77614 -1.78411 1.125
      vertex -2.16104 -2.49397 1.125
      vertex 1.37087 -3.00179 1.125
    endloop
  endfacet
  facet normal 0 -0 1
    outer loop
      vertex 2.175 0 1.125
      vertex 1.35609 -1.70048 1.125
      vertex 3.3 0 1.125
    endloop
  endfacet
  facet normal 0 0 1
    outer loop
      vertex 1.35609 1.70048 1.125
      vertex 2.175 0 1.125
      vertex 2.77614 1.78411 1.125
    endloop
  endfacet
  facet normal 0 0 1
    outer loop
      vertex -0.483983 2.12047 1.125
      vertex 1.35609 1.70048 1.125
      vertex 1.37087 3.00179 1.125
    endloop
  endfacet
  facet normal 0 0 1
    outer loop
      vertex -3.16633 0.929717 1.125
      vertex -2.16104 -2.49397 1.125
      vertex -2.16104 2.49397 1.125
    endloop
  endfacet
  facet normal 0 0 1
    outer loop
      vertex -3.16633 -0.929717 1.125
      vertex -2.16104 -2.49397 1.125
      vertex -3.16633 0.929717 1.125
    endloop
  endfacet
  facet normal 0 0 1
    outer loop
      vertex -2.16104 2.49397 1.125
      vertex -1.95961 0.943697 1.125
      vertex -0.469639 3.26641 1.125
    endloop
  endfacet
  facet normal 0 -0 1
    outer loop
      vertex -2.16104 2.49397 1.125
      vertex -2.16104 -2.49397 1.125
      vertex -1.95961 0.943697 1.125
    endloop
  endfacet
  facet normal 0 -0 1
    outer loop
      vertex -0.469639 3.26641 1.125
      vertex -0.483983 2.12047 1.125
      vertex 1.37087 3.00179 1.125
    endloop
  endfacet
  facet normal 0 -0 1
    outer loop
      vertex 1.37087 3.00179 1.125
      vertex 1.35609 1.70048 1.125
      vertex 2.77614 1.78411 1.125
    endloop
  endfacet
  facet normal 0 -0 1
    outer loop
      vertex 2.77614 1.78411 1.125
      vertex 2.175 0 1.125
      vertex 3.3 0 1.125
    endloop
  endfacet
  facet normal 0 0 1
    outer loop
      vertex 3.3 0 1.125
      vertex 1.35609 -1.70048 1.125
      vertex 2.77614 -1.78411 1.125
    endloop
  endfacet
  facet normal 0 -0 1
    outer loop
      vertex 1.35609 -1.70048 1.125
      vertex -0.483983 -2.12047 1.125
      vertex 2.77614 -1.78411 1.125
    endloop
  endfacet
  facet normal 0 0 1
    outer loop
      vertex -1.95961 0.943697 1.125
      vertex -2.16104 -2.49397 1.125
      vertex -1.95961 -0.943697 1.125
    endloop
  endfacet
  facet normal 0 0 1
    outer loop
      vertex -1.95961 0.943697 1.125
      vertex -0.483983 2.12047 1.125
      vertex -0.469639 3.26641 1.125
    endloop
  endfacet
  facet normal -0 0 1
    outer loop
      vertex -0.483983 -2.12047 1.125
      vertex -1.95961 -0.943697 1.125
      vertex -2.16104 -2.49397 1.125
    endloop
  endfacet
  facet normal 1 0 0
    outer loop
      vertex -3.16633 0.929717 1.125
      vertex -3.16633 0.929717 4.5
      vertex -3.16633 -0.929717 4.5
    endloop
  endfacet
  facet normal 1 0 0
    outer loop
      vertex -3.16633 -0.929717 1.125
      vertex -3.16633 0.929717 1.125
      vertex -3.16633 -0.929717 4.5
    endloop
  endfacet
  facet normal 0.841254 0.540641 0
    outer loop
      vertex -3.16633 -0.929717 4.5
      vertex -2.16104 -2.49397 4.5
      vertex -2.16104 -2.49397 1.125
    endloop
  endfacet
  facet normal 0.841254 0.540641 0
    outer loop
      vertex -3.16633 -0.929717 1.125
      vertex -3.16633 -0.929717 4.5
      vertex -2.16104 -2.49397 1.125
    endloop
  endfacet
  facet normal 0.415415 0.909632 -0
    outer loop
      vertex -0.469639 -3.26641 4.5
      vertex -0.469639 -3.26641 1.125
      vertex -2.16104 -2.49397 4.5
    endloop
  endfacet
  facet normal 0.415415 0.909632 -0
    outer loop
      vertex -2.16104 -2.49397 4.5
      vertex -0.469639 -3.26641 1.125
      vertex -2.16104 -2.49397 1.125
    endloop
  endfacet
  facet normal -0.142315 0.989821 0
    outer loop
      vertex 1.37087 -3.00179 4.5
      vertex 1.37087 -3.00179 1.125
      vertex -0.469639 -3.26641 4.5
    endloop
  endfacet
  facet normal -0.142315 0.989821 0
    outer loop
      vertex -0.469639 -3.26641 4.5
      vertex 1.37087 -3.00179 1.125
      vertex -0.469639 -3.26641 1.125
    endloop
  endfacet
  facet normal -0.654861 0.75575 0
    outer loop
      vertex 2.77614 -1.78411 4.5
      vertex 2.77614 -1.78411 1.125
      vertex 1.37087 -3.00179 4.5
    endloop
  endfacet
  facet normal -0.654861 0.75575 0
    outer loop
      vertex 1.37087 -3.00179 4.5
      vertex 2.77614 -1.78411 1.125
      vertex 1.37087 -3.00179 1.125
    endloop
  endfacet
  facet normal -0.959493 0.281732 0
    outer loop
      vertex 3.3 0 4.5
      vertex 3.3 0 1.125
      vertex 2.77614 -1.78411 4.5
    endloop
  endfacet
  facet normal -0.959493 0.281732 0
    outer loop
      vertex 2.77614 -1.78411 4.5
      vertex 3.3 0 1.125
      vertex 2.77614 -1.78411 1.125
    endloop
  endfacet
  facet normal -0.959493 -0.281732 0
    outer loop
      vertex 3.3 0 4.5
      vertex 2.77614 1.78411 4.5
      vertex 3.3 0 1.125
    endloop
  endfacet
  facet normal -0.959493 -0.281732 0
    outer loop
      vertex 3.3 0 1.125
      vertex 2.77614 1.78411 4.5
      vertex 2.77614 1.78411 1.125
    endloop
  endfacet
  facet normal -0.654861 -0.75575 -0
    outer loop
      vertex 2.77614 1.78411 1.125
      vertex 2.77614 1.78411 4.5
      vertex 1.37087 3.00179 4.5
    endloop
  endfacet
  facet normal -0.654861 -0.75575 -0
    outer loop
      vertex 1.37087 3.00179 1.125
      vertex 2.77614 1.78411 1.125
      vertex 1.37087 3.00179 4.5
    endloop
  endfacet
  facet normal -0.142315 -0.989821 -0
    outer loop
      vertex 1.37087 3.00179 1.125
      vertex 1.37087 3.00179 4.5
      vertex -0.469639 3.26641 4.5
    endloop
  endfacet
  facet normal -0.142315 -0.989821 -0
    outer loop
      vertex -0.469639 3.26641 1.125
      vertex 1.37087 3.00179 1.125
      vertex -0.469639 3.26641 4.5
    endloop
  endfacet
  facet normal 0.415415 -0.909632 0
    outer loop
      vertex -0.469639 3.26641 1.125
      vertex -0.469639 3.26641 4.5
      vertex -2.16104 2.49397 4.5
    endloop
  endfacet
  facet normal 0.415415 -0.909632 0
    outer loop
      vertex -2.16104 2.49397 1.125
      vertex -0.469639 3.26641 1.125
      vertex -2.16104 2.49397 4.5
    endloop
  endfacet
  facet normal 0.841254 -0.540641 0
    outer loop
      vertex -2.16104 2.49397 1.125
      vertex -2.16104 2.49397 4.5
      vertex -3.16633 0.929717 4.5
    endloop
  endfacet
  facet normal 0.841254 -0.540641 0
    outer loop
      vertex -3.16633 0.929717 1.125
      vertex -2.16104 2.49397 1.125
      vertex -3.16633 0.929717 4.5
    endloop
  endfacet
endsolid OpenSCAD_Model
